<svg width="34" height="34" viewBox="0 0 34 34" fill="none" xmlns="http://www.w3.org/2000/svg">
<path d="M16.7695 2.9952C21.2379 2.9952 21.778 2.9952 23.5458 3.0934C25.1662 3.19161 26.05 3.43713 26.6393 3.68265C27.4249 3.97727 27.9651 4.3701 28.5543 4.95934C29.1436 5.54858 29.4873 6.08872 29.831 6.87438C30.0765 7.46362 30.322 8.34748 30.4203 9.9679C30.5185 11.7356 30.5185 12.2758 30.5185 16.7442C30.5185 21.2126 30.5185 21.7528 30.4203 23.5205C30.322 25.1409 30.0765 26.0248 29.831 26.614C29.5364 27.3997 29.1436 27.9398 28.5543 28.529C27.9651 29.1183 27.4249 29.462 26.6393 29.8057C26.05 30.0513 25.1662 30.2968 23.5458 30.395C21.778 30.4932 21.2379 30.4932 16.7695 30.4932C12.301 30.4932 11.7609 30.4932 9.99317 30.395C8.37275 30.2968 7.48889 30.0513 6.89965 29.8057C6.11399 29.5111 5.57385 29.1183 4.98461 28.529C4.39536 27.9398 4.05164 27.3997 3.70791 26.614C3.4624 26.0248 3.21688 25.1409 3.11867 23.5205C3.02046 21.7528 3.02046 21.2126 3.02046 16.7442C3.02046 12.2758 3.02046 11.7356 3.11867 9.9679C3.21688 8.34748 3.4624 7.46362 3.70791 6.87438C4.00254 6.08872 4.39536 5.54858 4.98461 4.95934C5.57385 4.3701 6.11399 4.02637 6.89965 3.68265C7.48889 3.43713 8.37275 3.19161 9.99317 3.0934C11.7609 2.9952 12.301 2.9952 16.7695 2.9952ZM16.7695 -0.00012207C12.2028 -0.00012207 11.6627 -0.00012207 9.84586 0.0980851C8.07813 0.196292 6.85054 0.44181 5.77026 0.883742C4.68998 1.32567 3.75702 1.86581 2.82405 2.79878C1.89108 3.73175 1.30184 4.66472 0.909011 5.74499C0.516182 6.82527 0.221561 8.00376 0.123354 9.82059C0.0251465 11.5883 0.0251465 12.1776 0.0251465 16.7442C0.0251465 21.3108 0.0251465 21.851 0.123354 23.6678C0.221561 25.4355 0.467079 26.6631 0.909011 27.7434C1.35094 28.8237 1.89108 29.7566 2.82405 30.6896C3.75702 31.6226 4.68998 32.2118 5.77026 32.6046C6.85054 32.9975 8.02903 33.2921 9.84586 33.3903C11.6136 33.4885 12.2028 33.4885 16.7695 33.4885C21.3361 33.4885 21.8762 33.4885 23.6931 33.3903C25.4608 33.2921 26.6884 33.0466 27.7687 32.6046C28.8489 32.1627 29.7819 31.6226 30.7149 30.6896C31.6478 29.7566 32.2371 28.8237 32.6299 27.7434C33.0227 26.6631 33.3174 25.4846 33.4156 23.6678C33.5138 21.9001 33.5138 21.3108 33.5138 16.7442C33.5138 12.1776 33.5138 11.6374 33.4156 9.82059C33.3174 8.05286 33.0718 6.82527 32.6299 5.74499C32.188 4.66472 31.6478 3.73175 30.7149 2.79878C29.7819 1.86581 28.8489 1.27657 27.7687 0.883742C26.6884 0.490914 25.5099 0.196292 23.6931 0.0980851C21.9253 -0.00012207 21.3361 -0.00012207 16.7695 -0.00012207Z" fill="#FCFCFC"/>
<path d="M16.7695 8.15137C12.0065 8.15137 8.17639 11.9814 8.17639 16.7445C8.17639 21.5075 12.0065 25.3376 16.7695 25.3376C21.5326 25.3376 25.3626 21.5075 25.3626 16.7445C25.3626 11.9814 21.5326 8.15137 16.7695 8.15137ZM16.7695 22.3423C13.676 22.3423 11.1717 19.838 11.1717 16.7445C11.1717 13.651 13.676 11.1467 16.7695 11.1467C19.863 11.1467 22.3673 13.651 22.3673 16.7445C22.3673 19.838 19.863 22.3423 16.7695 22.3423Z" fill="#FCFCFC"/>
<path d="M25.7066 9.82063C26.8187 9.82063 27.7202 8.9191 27.7202 7.80701C27.7202 6.69492 26.8187 5.7934 25.7066 5.7934C24.5945 5.7934 23.693 6.69492 23.693 7.80701C23.693 8.9191 24.5945 9.82063 25.7066 9.82063Z" fill="#FCFCFC"/>
</svg>
